FFmpeg version SVN-r25716, Copyright (c) 2000-2010 the FFmpeg developers  built on Nov 10 2010 12:23:18 with gcc 4.1.2 20080704 (Red Hat 4.1.2-48)  configuration: --enable-libmp3lame --enable-shared --disable-mmx --arch=x86_64  libavutil     50.33. 0 / 50.33. 0  libavcore      0.12. 1 /  0.12. 1  libavcodec    52.94. 4 / 52.94. 4  libavformat   52.84. 0 / 52.84. 0  libavdevice   52. 2. 2 / 52. 2. 2  libavfilter    1.59. 0 /  1.59. 0  libswscale     0.12. 0 /  0.12. 0Seems stream 0 codec frame rate differs from container frame rate: 600.00 (600/1) -> 15.00 (15/1)Input #0, mov,mp4,m4a,3gp,3g2,mj2, from '/RAID10/data/converted_video_files/42165.mov':  Metadata:    major_brand     : qt      minor_version   : 537199360    compatible_brands: qt    Duration: 00:00:11.93, start: 0.000000, bitrate: 22845 kb/s    Stream #0.0(eng): Video: mjpeg, yuvj420p, 1388x1040 [PAR 1:1 DAR 347:260], 22844 kb/s, 15 fps, 15 tbr, 600 tbn, 600 tbc[buffer @ 0x8958f0] w:1388 h:1040 pixfmt:yuvj420p[ffsink @ 0x895b60] auto-inserting filter 'auto-inserted scaler 0' between the filter 'src' and the filter 'out'[scale @ 0x8b5220] w:1388 h:1040 fmt:yuvj420p -> w:1388 h:1040 fmt:yuv420p flags:0x4Output #0, flv, to '/RAID10/data/converted_video_files/42165.flv':  Metadata:    encoder         : Lavf52.84.0    Stream #0.0(eng): Video: flv, yuv420p, 1388x1040 [PAR 1:1 DAR 347:260], q=2-31, 600 kb/s, 1k tbn, 24 tbcStream mapping:  Stream #0.0 -> #0.0Press [q] to stop encodingframe=    5 fps=  0 q=4.4 size=     705kB time=0.29 bitrate=19859.6kbits/s    frame=   12 fps= 10 q=24.3 size=     755kB time=0.75 bitrate=8247.4kbits/s    frame=   20 fps= 11 q=31.0 size=     814kB time=1.29 bitrate=5167.9kbits/s    frame=   28 fps= 12 q=31.0 size=     884kB time=1.83 bitrate=3950.5kbits/s    frame=   34 fps= 12 q=31.0 size=     903kB time=2.25 bitrate=3287.1kbits/s    frame=   41 fps= 12 q=31.0 size=     957kB time=2.71 bitrate=2895.2kbits/s    frame=   49 fps= 12 q=24.8 size=    1018kB time=3.25 bitrate=2565.9kbits/s    frame=   56 fps= 13 q=31.0 size=    1040kB time=3.71 bitrate=2297.7kbits/s    frame=   63 fps= 13 q=31.0 size=    1094kB time=4.17 bitrate=2151.6kbits/s    frame=   70 fps= 13 q=31.0 size=    1110kB time=4.62 bitrate=1965.7kbits/s    frame=   79 fps= 13 q=31.0 size=    1169kB time=5.25 bitrate=1824.7kbits/s    frame=   86 fps= 13 q=31.0 size=    1226kB time=5.71 bitrate=1760.1kbits/s    frame=   94 fps= 13 q=31.0 size=    1247kB time=6.25 bitrate=1634.1kbits/s    frame=  103 fps= 13 q=31.0 size=    1306kB time=6.83 bitrate=1566.0kbits/s    frame=  112 fps= 14 q=31.0 size=    1364kB time=7.46 bitrate=1498.2kbits/s    frame=  120 fps= 14 q=31.0 size=    1387kB time=7.96 bitrate=1427.5kbits/s    frame=  128 fps= 14 q=31.0 size=    1444kB time=8.50 bitrate=1391.5kbits/s    frame=  137 fps= 14 q=31.0 size=    1506kB time=9.12 bitrate=1352.0kbits/s    frame=  145 fps= 14 q=24.8 size=    1572kB time=9.62 bitrate=1338.1kbits/s    frame=  152 fps= 14 q=31.0 size=    1590kB time=10.12 bitrate=1286.5kbits/s    frame=  161 fps= 14 q=31.0 size=    1650kB time=10.71 bitrate=1262.1kbits/s    frame=  169 fps= 14 q=24.8 size=    1706kB time=11.25 bitrate=1242.0kbits/s    frame=  177 fps= 14 q=31.0 size=    1723kB time=11.75 bitrate=1201.3kbits/s    frame=  179 fps= 14 q=31.0 Lsize=    1729kB time=11.92 bitrate=1188.9kbits/s    video:1726kB audio:0kB global headers:0kB muxing overhead 0.173893%